<svg width="32" height="32" viewBox="0 0 32 32" fill="none" xmlns="http://www.w3.org/2000/svg">
<path d="M3.13017 25.9348C3.49547 25.9348 3.78249 25.5874 3.78249 25.1451V16.8845L7.72246 14.3258V21.1017C7.72246 21.5439 8.00948 21.8914 8.37478 21.8914C8.74007 21.8914 9.02709 21.5439 9.02709 21.1017V11.6881L2.49091 15.9368V25.1451C2.47786 25.5716 2.76488 25.9348 3.13017 25.9348Z" fill="white"/>
<path d="M10.984 19.9487C11.3493 19.9487 11.6364 19.6012 11.6364 19.1589V5.19645L15.5763 2.63771V25.3504C15.5763 25.7927 15.8633 26.1402 16.2286 26.1402C16.5939 26.1402 16.881 25.7927 16.881 25.3504V0L10.3317 4.24876V19.1589C10.3317 19.5854 10.6187 19.9487 10.984 19.9487Z" fill="white"/>
<path d="M18.8379 25.1135C19.2032 25.1135 19.4902 24.766 19.4902 24.3238V9.27147L23.4301 6.71273V20.3435C23.4301 20.7858 23.7172 21.1333 24.0825 21.1333C24.4478 21.1333 24.7348 20.7858 24.7348 20.3435V4.07502L18.1986 8.32379V24.3238C18.1855 24.766 18.4856 25.1135 18.8379 25.1135Z" fill="white"/>
<path d="M31.9102 18.8746C31.7928 18.6377 31.5841 18.4798 31.3492 18.4798H26.8483C26.6134 18.4798 26.4047 18.6377 26.2873 18.8746C26.1699 19.1115 26.1699 19.4116 26.2873 19.6644L27.0962 21.3544L23.5084 23.9921C22.9605 24.4028 22.4256 24.7976 21.8776 25.2083C21.4863 25.5084 21.0949 25.7927 20.7165 26.0928C19.6989 26.8825 18.7987 27.5933 17.9638 28.2882C17.5332 28.6357 17.1158 28.999 16.6852 29.3465L10.8405 22.4284L0.299105 30.5469C-0.000959115 30.7838 -0.0922831 31.2734 0.103411 31.6367C0.233874 31.8736 0.442614 32 0.651355 32C0.768771 32 0.886188 31.9526 1.0036 31.8736L10.6578 24.4343L16.5548 31.3998L17.3506 30.7048C17.7942 30.3258 18.2377 29.9467 18.6944 29.5834C19.5163 28.9042 20.4034 28.2093 21.421 27.4195C21.7994 27.1194 22.1908 26.8351 22.5691 26.535C23.104 26.1244 23.6519 25.7295 24.1868 25.3189L27.4875 22.8707L27.7485 22.6811L28.5443 24.3554C28.6617 24.5923 28.8705 24.7502 29.1053 24.7502C29.3401 24.7502 29.5489 24.5923 29.6663 24.3554L31.9233 19.6328C32.0277 19.4274 32.0276 19.1273 31.9102 18.8746ZM29.0922 22.4126L27.9703 20.0592H30.2142L29.0922 22.4126Z" fill="white"/>
</svg>
