<svg width="32" height="32" viewBox="0 0 32 32" fill="none" xmlns="http://www.w3.org/2000/svg">
<path d="M16 2.28571C23.5742 2.28571 29.7143 8.42581 29.7143 16C29.7143 23.5742 23.5742 29.7143 16 29.7143C12.0472 29.7143 8.36369 28.0316 5.7786 25.1437C5.46287 24.791 5.49285 24.2491 5.84557 23.9334C6.19828 23.6177 6.74017 23.6476 7.0559 24.0004C9.31912 26.5287 12.5399 28 16 28C22.6274 28 28 22.6274 28 16C28 9.37258 22.6274 4 16 4C12.2702 4 8.82937 5.71303 6.57488 8.57149L9.42858 8.57143C10.5397 8.57143 10.5706 10.1918 9.52117 10.2818L9.42858 10.2857H4.57144C4.1259 10.2857 3.75975 9.94578 3.71822 9.51112L3.71429 9.42857V4.57143C3.71429 4.09804 4.09805 3.71429 4.57144 3.71429C5.01698 3.71429 5.38312 4.05422 5.42466 4.48888L5.42858 4.57143L5.42821 7.26301C8.00485 4.146 11.8469 2.28571 16 2.28571ZM16 9.14286C16.4455 9.14286 16.8117 9.48279 16.8532 9.91745L16.8572 10V15.6451L20.3204 19.1082C20.6342 19.422 20.6538 19.9186 20.3792 20.2553L20.3204 20.3204C20.0066 20.6342 19.51 20.6538 19.1733 20.3792L19.1082 20.3204L15.3939 16.6061C15.2533 16.4654 15.1665 16.2809 15.1471 16.0847L15.1429 16V10C15.1429 9.52661 15.5266 9.14286 16 9.14286Z" fill="white"/>
</svg>
