<svg width="32" height="32" viewBox="0 0 32 32" fill="none" xmlns="http://www.w3.org/2000/svg">
<g clip-path="url(#clip0_4_65)">
<path d="M31.78 15.055L28.865 12.14L17.25 0.512474C17.0875 0.349952 16.8946 0.221032 16.6822 0.133075C16.4699 0.0451184 16.2423 -0.000152588 16.0125 -0.000152588C15.7827 -0.000152588 15.5551 0.0451184 15.3428 0.133075C15.1304 0.221032 14.9375 0.349952 14.775 0.512474L3.1425 12.1325L0.219999 15.055C0.0875191 15.1971 0.0153959 15.3852 0.0188241 15.5795C0.0222523 15.7738 0.100964 15.9592 0.238377 16.0966C0.37579 16.234 0.561175 16.3127 0.755477 16.3161C0.949778 16.3196 1.13782 16.2475 1.28 16.115L2.9225 14.4725V30.25C2.9225 30.7141 3.10687 31.1592 3.43506 31.4874C3.76325 31.8156 4.20837 32 4.6725 32H11.5C11.9641 32 12.4092 31.8156 12.7374 31.4874C13.0656 31.1592 13.25 30.7141 13.25 30.25V20.25C13.25 20.1837 13.2763 20.1201 13.3232 20.0732C13.3701 20.0263 13.4337 20 13.5 20H18.5C18.5663 20 18.6299 20.0263 18.6768 20.0732C18.7237 20.1201 18.75 20.1837 18.75 20.25V30.25C18.75 30.7141 18.9344 31.1592 19.2626 31.4874C19.5908 31.8156 20.0359 32 20.5 32H27.335C27.5648 32 27.7924 31.9547 28.0047 31.8668C28.217 31.7788 28.4099 31.6499 28.5724 31.4874C28.7349 31.3249 28.8638 31.132 28.9518 30.9197C29.0397 30.7073 29.085 30.4798 29.085 30.25V14.48L30.72 16.115C30.8622 16.2475 31.0502 16.3196 31.2445 16.3161C31.4388 16.3127 31.6242 16.234 31.7616 16.0966C31.899 15.9592 31.9777 15.7738 31.9812 15.5795C31.9846 15.3852 31.9125 15.1971 31.78 15.055ZM27.585 30.25C27.585 30.3163 27.5587 30.3799 27.5118 30.4268C27.4649 30.4736 27.4013 30.5 27.335 30.5H20.5C20.4337 30.5 20.3701 30.4736 20.3232 30.4268C20.2763 30.3799 20.25 30.3163 20.25 30.25V20.25C20.25 19.7858 20.0656 19.3407 19.7374 19.0125C19.4092 18.6843 18.9641 18.5 18.5 18.5H13.5C13.0359 18.5 12.5908 18.6843 12.2626 19.0125C11.9344 19.3407 11.75 19.7858 11.75 20.25V30.25C11.75 30.3163 11.7237 30.3799 11.6768 30.4268C11.6299 30.4736 11.5663 30.5 11.5 30.5H4.6725C4.60619 30.5 4.54261 30.4736 4.49572 30.4268C4.44884 30.3799 4.4225 30.3163 4.4225 30.25V12.975L15.8225 1.57247C15.8693 1.52591 15.9327 1.49978 15.9987 1.49978C16.0648 1.49978 16.1282 1.52591 16.175 1.57247L27.5825 12.98L27.585 30.25Z" fill="white"/>
</g>
<defs>
<clipPath id="clip0_4_65">
<rect width="32" height="32" fill="white"/>
</clipPath>
</defs>
</svg>
