<svg width="24" height="24" viewBox="0 0 24 24" fill="none" xmlns="http://www.w3.org/2000/svg">
<g clip-path="url(#clip0_4_88)">
<path d="M22.6798 1.32019C21.8 0.440119 20.7399 0 19.5004 0H4.50031C3.26084 0 2.20077 0.440119 1.32053 1.32019C0.440455 2.20043 0.000335693 3.26045 0.000335693 4.49997V19.4999C0.000335693 20.7393 0.440455 21.7995 1.32053 22.6797C2.20077 23.5599 3.26084 24.0001 4.50031 24.0001H19.5003C20.7397 24.0001 21.7998 23.5599 22.6797 22.6797C23.5599 21.7995 24 20.7394 24 19.4999V4.49997C24 3.26045 23.5598 2.20027 22.6798 1.32019ZM7.31276 20.0936H3.70337V9.24983H7.31276V20.0936ZM6.98483 7.24221C6.60989 7.6016 6.11505 7.78133 5.5004 7.78133H5.48464C4.89095 7.78133 4.40935 7.6016 4.03945 7.24221C3.66949 6.88281 3.48462 6.43755 3.48462 5.90631C3.48462 5.36467 3.67485 4.91667 4.05494 4.56242C4.43529 4.20827 4.9274 4.03112 5.53149 4.03112C6.13562 4.03112 6.62002 4.20827 6.98467 4.56242C7.34921 4.91667 7.53676 5.36467 7.5471 5.90631C7.54705 6.43733 7.35977 6.88259 6.98483 7.24221ZM20.2971 20.0936H16.6878V14.2969C16.6878 12.6617 16.0838 11.8438 14.8754 11.8438C14.4171 11.8438 14.0315 11.9714 13.7191 12.2266C13.4063 12.4817 13.1721 12.7916 13.016 13.1565C12.943 13.3438 12.9066 13.6354 12.9066 14.0311V20.0935H9.29723C9.32848 13.552 9.32848 9.93726 9.29723 9.24972H12.9066V10.7807C13.6655 9.59412 14.7432 8.99962 16.1411 8.99962C17.3911 8.99962 18.3964 9.41117 19.1568 10.2339C19.9172 11.0569 20.2974 12.2706 20.2974 13.8744V20.0936H20.2971Z" fill="white"/>
</g>
<defs>
<clipPath id="clip0_4_88">
<rect width="24" height="24" fill="white"/>
</clipPath>
</defs>
</svg>
