<svg width="135" height="112" viewBox="0 0 135 112" fill="none" xmlns="http://www.w3.org/2000/svg">
<path d="M42.572 1.86079C41.3332 3.1728 40.616 4.5504 40.616 5.73119C40.616 7.0432 35.6608 14.9808 23.0772 34.0048C9.1244 55.128 5.1472 60.704 3.3868 61.5568C-1.5032 64.0496 -0.264396 70.3472 5.2124 70.7408C8.2116 70.9376 9.9068 69.56 10.1024 66.5424C10.1676 65.296 16.166 55.7184 27.7716 38.072C37.4212 23.4432 45.7668 11.176 46.2884 10.848C49.4832 8.7488 50.5916 7.3712 50.5916 5.3376C50.5916 2.9104 48.9616 0.942398 46.3536 0.351997C44.9192 -0.0416031 44.202 0.2864 42.572 1.86079Z" fill="white"/>
<path d="M62.784 1.33599C62.0668 2.05759 61.48 3.50079 61.48 4.61599C61.48 7.5024 25.7504 60.9664 23.0772 62.0816C20.0128 63.3936 19.3608 67.7232 21.9036 70.0848C24.968 73.0368 29.2712 71.2 30.1188 66.608C30.4448 64.7056 35.6608 56.44 48.7008 36.8912C58.6764 22.0656 67.0872 9.86399 67.4132 9.86399C67.8044 9.86399 68.7824 9.14239 69.63 8.22399C72.89 5.00959 70.934 0.0239944 66.37 0.0239944C64.9356 0.0239944 63.5664 0.54879 62.784 1.33599Z" fill="white"/>
<path d="M65.1312 30.2C53.7212 46.7968 44.0064 60.376 43.55 60.376C42.246 60.376 39.964 63.5904 39.964 65.3616C39.964 67.7232 42.6372 70.4128 45.0496 70.4128C47.8532 70.4128 50.396 67.9856 50.396 65.296C50.396 63.7216 52.2216 60.5072 57.9592 52.1104C62.132 46.0096 65.718 40.8272 65.9788 40.4992C66.2396 40.2368 70.2168 45.616 74.7156 52.504C80.6488 61.36 82.996 65.4928 82.996 66.8704C82.996 68.1824 83.5828 69.232 84.6912 70.1504C87.234 72.184 89.7116 71.9216 91.7328 69.4944C92.6456 68.3792 93.428 67.264 93.428 66.936C93.428 65.1648 91.8632 62.8032 89.9724 61.688C88.4076 60.7696 85.2128 56.5056 79.084 47.256L70.4124 34.136L73.1508 29.9376C74.7156 27.576 76.2804 25.4112 76.6716 25.0832C77.7148 24.2304 104.512 63.4592 104.512 65.8208C104.512 71.528 113.184 72.184 114.553 66.5424C115.14 64.3776 113.314 61.1632 111.358 60.6384C110.119 60.3104 106.207 55.128 95.4492 39.2528L81.1052 18.3264L84.1044 14.0624L87.0384 9.86398L88.7988 12.2912C103.795 33.3488 124.724 64.5088 124.724 65.7552C124.724 67.8544 127.267 70.216 129.549 70.216C132.092 70.216 133.526 69.232 134.504 67.0016C135.547 64.4432 134.308 61.7536 131.374 60.376C129.744 59.5888 124.854 52.9632 108.88 29.872C94.732 9.40478 88.0816 0.286377 87.1688 0.155182C86.0604 0.0239792 82.018 5.46877 65.1312 30.2Z" fill="white"/>
<path d="M35.4 96.0626V111.544H37.03H38.66V102.163C38.66 96.9154 38.9208 93.2418 39.2468 93.8322C39.5076 94.357 40.7464 98.5554 41.92 103.147L44.0716 111.544H46.2884H48.44V96.1282V80.7122H46.81H45.18L45.1148 90.3554C45.1148 95.7346 44.9192 99.605 44.6584 99.0802C44.4628 98.5554 43.224 94.2258 41.9852 89.5682L39.638 81.0402L37.5516 80.8434L35.4 80.6466V96.0626Z" fill="white"/>
<path d="M67.022 82.1552C66.8916 83.008 65.9788 89.24 65.066 96.128C64.1532 102.95 63.3056 109.248 63.11 110.035C62.784 111.347 63.0448 111.544 64.74 111.544C66.3048 111.544 66.696 111.282 66.696 110.035C66.696 106.558 67.348 105.64 69.956 105.64C72.3684 105.64 72.4336 105.706 72.8248 108.592C73.216 111.15 73.4768 111.544 74.9112 111.544C76.8672 111.544 76.8672 112.266 74.52 95.144C73.4768 87.4032 72.564 80.9744 72.564 80.9088C72.564 80.7776 71.3904 80.712 69.956 80.712C67.8044 80.712 67.348 80.9744 67.022 82.1552ZM70.934 94.816C71.1296 96.9808 71.5208 99.408 71.7164 100.195C72.0424 101.507 71.7816 101.704 69.956 101.704C67.8696 101.704 67.8696 101.638 68.1956 99.2112C68.4564 97.8992 68.7824 95.0784 69.0432 92.9136C69.5648 88.4528 70.282 89.1744 70.934 94.816Z" fill="white"/>
<path d="M93.1672 83.4016C91.798 85.0416 91.472 86.0912 91.472 88.912C91.472 93.8976 92.45 95.5376 96.4272 97.5056C100.144 99.3424 100.6 99.9984 100.6 103.606C100.6 106.362 99.6872 107.608 97.5356 107.608C95.9056 107.608 94.732 105.902 94.732 103.41C94.732 102.032 94.406 101.704 93.102 101.704C91.6024 101.704 91.472 101.966 91.472 104.656C91.472 109.576 95.71 112.659 100.013 110.888C102.947 109.642 103.86 107.87 103.86 103.278C103.86 98.4896 102.491 96.2592 98.5788 94.6848C95.6448 93.5696 94.732 92.192 94.732 89.24C94.732 86.3536 95.8404 84.648 97.666 84.648C99.4916 84.648 100.6 86.3536 100.6 89.1744C100.6 90.88 100.861 91.208 102.23 91.208C103.73 91.208 103.86 90.9456 103.86 88.5184C103.86 83.7296 101.839 81.4336 97.5356 81.368C95.3188 81.368 94.5364 81.696 93.1672 83.4016Z" fill="white"/>
</svg>
